<svg width="119" height="86" viewBox="0 0 119 86" fill="none" xmlns="http://www.w3.org/2000/svg">
<path d="M11.178 0.600586L106.835 0.600586V47.7026H11.178V0.600586ZM59.0064 12.3761C63.2347 12.3761 67.2898 13.6167 70.2797 15.8251C73.2695 18.0334 74.9492 21.0285 74.9492 24.1516C74.9492 27.2747 73.2695 30.2698 70.2797 32.4781C67.2898 34.6865 63.2347 35.9271 59.0064 35.9271C54.7781 35.9271 50.723 34.6865 47.7332 32.4781C44.7433 30.2698 43.0636 27.2747 43.0636 24.1516C43.0636 21.0285 44.7433 18.0334 47.7332 15.8251C50.723 13.6167 54.7781 12.3761 59.0064 12.3761M32.4351 8.45093C32.4351 10.533 31.3153 12.5297 29.3221 14.002C27.3288 15.4742 24.6254 16.3013 21.8066 16.3013V32.0019C24.6254 32.0019 27.3288 32.829 29.3221 34.3013C31.3153 35.7735 32.4351 37.7702 32.4351 39.8523H85.5778C85.5778 37.7702 86.6976 35.7735 88.6908 34.3013C90.684 32.829 93.3874 32.0019 96.2063 32.0019V16.3013C93.3874 16.3013 90.684 15.4742 88.6908 14.002C86.6976 12.5297 85.5778 10.533 85.5778 8.45093H32.4351Z" fill="#00B37E"/>
<path d="M0.852273 61.5881V58.5455H15.1875V61.5881H9.84375V76H6.19602V61.5881H0.852273ZM23.7358 76H17.5483V58.5455H23.7869C25.5426 58.5455 27.054 58.8949 28.321 59.5938C29.5881 60.2869 30.5625 61.2841 31.2443 62.5852C31.9318 63.8864 32.2756 65.4432 32.2756 67.2557C32.2756 69.0739 31.9318 70.6364 31.2443 71.9432C30.5625 73.25 29.5824 74.2528 28.304 74.9517C27.0312 75.6506 25.5085 76 23.7358 76ZM21.2386 72.8381H23.5824C24.6733 72.8381 25.5909 72.6449 26.3352 72.2585C27.0852 71.8665 27.6477 71.2614 28.0227 70.4432C28.4034 69.6193 28.5938 68.5568 28.5938 67.2557C28.5938 65.9659 28.4034 64.9119 28.0227 64.0938C27.6477 63.2756 27.0881 62.6733 26.3438 62.2869C25.5994 61.9006 24.6818 61.7074 23.5909 61.7074H21.2386V72.8381ZM40.5639 58.5455H45.1151L49.9219 70.2727H50.1264L54.9332 58.5455H59.4844V76H55.9048V64.6392H55.7599L51.2429 75.9148H48.8054L44.2884 64.5966H44.1435V76H40.5639V58.5455ZM68.3714 76.2557C67.0476 76.2557 65.9027 75.9744 64.9368 75.4119C63.9766 74.8437 63.2351 74.054 62.7124 73.0426C62.1896 72.0256 61.9283 70.8466 61.9283 69.5057C61.9283 68.1534 62.1896 66.9716 62.7124 65.9602C63.2351 64.9432 63.9766 64.1534 64.9368 63.5909C65.9027 63.0227 67.0476 62.7386 68.3714 62.7386C69.6953 62.7386 70.8374 63.0227 71.7976 63.5909C72.7635 64.1534 73.5078 64.9432 74.0305 65.9602C74.5533 66.9716 74.8146 68.1534 74.8146 69.5057C74.8146 70.8466 74.5533 72.0256 74.0305 73.0426C73.5078 74.054 72.7635 74.8437 71.7976 75.4119C70.8374 75.9744 69.6953 76.2557 68.3714 76.2557ZM68.3885 73.4432C68.9908 73.4432 69.4936 73.2727 69.897 72.9318C70.3004 72.5852 70.6044 72.1136 70.8089 71.517C71.0192 70.9205 71.1243 70.2415 71.1243 69.4801C71.1243 68.7188 71.0192 68.0398 70.8089 67.4432C70.6044 66.8466 70.3004 66.375 69.897 66.0284C69.4936 65.6818 68.9908 65.5085 68.3885 65.5085C67.7805 65.5085 67.2692 65.6818 66.8544 66.0284C66.4453 66.375 66.1357 66.8466 65.9254 67.4432C65.7209 68.0398 65.6186 68.7188 65.6186 69.4801C65.6186 70.2415 65.7209 70.9205 65.9254 71.517C66.1357 72.1136 66.4453 72.5852 66.8544 72.9318C67.2692 73.2727 67.7805 73.4432 68.3885 73.4432ZM80.8061 68.4318V76H77.1754V62.9091H80.6357V65.2188H80.7891C81.0788 64.4574 81.5646 63.8551 82.2464 63.4119C82.9283 62.9631 83.755 62.7386 84.7266 62.7386C85.6357 62.7386 86.4283 62.9375 87.1044 63.3352C87.7805 63.733 88.3061 64.3011 88.6811 65.0398C89.0561 65.7727 89.2436 66.6477 89.2436 67.6648V76H85.6129V68.3125C85.6186 67.5114 85.4141 66.8864 84.9993 66.4375C84.5845 65.983 84.0135 65.7557 83.2862 65.7557C82.7976 65.7557 82.3658 65.8608 81.9908 66.071C81.6214 66.2812 81.3317 66.5881 81.1214 66.9915C80.9169 67.3892 80.8118 67.8693 80.8061 68.4318ZM98.071 76.2557C96.7244 76.2557 95.5653 75.983 94.5938 75.4375C93.6278 74.8864 92.8835 74.108 92.3608 73.1023C91.8381 72.0909 91.5767 70.8949 91.5767 69.5142C91.5767 68.1676 91.8381 66.9858 92.3608 65.9688C92.8835 64.9517 93.6193 64.1591 94.5682 63.5909C95.5227 63.0227 96.642 62.7386 97.9261 62.7386C98.7898 62.7386 99.5938 62.8778 100.338 63.1562C101.088 63.429 101.741 63.8409 102.298 64.392C102.861 64.9432 103.298 65.6364 103.611 66.4716C103.923 67.3011 104.08 68.2727 104.08 69.3864V70.3835H93.0256V68.1335H100.662C100.662 67.6108 100.548 67.1477 100.321 66.7443C100.094 66.3409 99.7784 66.0256 99.375 65.7983C98.9773 65.5653 98.5142 65.4489 97.9858 65.4489C97.4347 65.4489 96.946 65.5767 96.5199 65.8324C96.0994 66.0824 95.7699 66.4205 95.5312 66.8466C95.2926 67.267 95.1705 67.7358 95.1648 68.2528V70.392C95.1648 71.0398 95.2841 71.5994 95.5227 72.071C95.767 72.5426 96.1108 72.9062 96.554 73.1619C96.9972 73.4176 97.5227 73.5455 98.1307 73.5455C98.5341 73.5455 98.9034 73.4886 99.2386 73.375C99.5739 73.2614 99.8608 73.0909 100.099 72.8636C100.338 72.6364 100.52 72.358 100.645 72.0284L104.003 72.25C103.832 73.0568 103.483 73.7614 102.955 74.3636C102.432 74.9602 101.756 75.4261 100.926 75.7614C100.102 76.0909 99.1506 76.2557 98.071 76.2557ZM108.339 80.9091C107.879 80.9091 107.447 80.8722 107.043 80.7983C106.646 80.7301 106.316 80.642 106.055 80.5341L106.873 77.8239C107.299 77.9545 107.683 78.0256 108.023 78.0369C108.37 78.0483 108.668 77.9688 108.918 77.7983C109.174 77.6278 109.381 77.3381 109.54 76.929L109.754 76.375L105.058 62.9091H108.876L111.586 72.5227H111.722L114.458 62.9091H118.302L113.214 77.4148C112.969 78.1193 112.637 78.733 112.217 79.2557C111.802 79.7841 111.276 80.1903 110.64 80.4744C110.004 80.7642 109.237 80.9091 108.339 80.9091Z" fill="#E1E1E6"/>
</svg>
