<svg width="96" height="48" viewBox="0 0 96 48" fill="none" xmlns="http://www.w3.org/2000/svg">
<path d="M0.17804 0.600586L95.8348 0.600586V47.7026H0.17804L0.17804 0.600586ZM48.0064 12.3761C52.2347 12.3761 56.2898 13.6167 59.2797 15.8251C62.2695 18.0334 63.9492 21.0285 63.9492 24.1516C63.9492 27.2747 62.2695 30.2698 59.2797 32.4781C56.2898 34.6865 52.2347 35.9271 48.0064 35.9271C43.7781 35.9271 39.723 34.6865 36.7332 32.4781C33.7433 30.2698 32.0636 27.2747 32.0636 24.1516C32.0636 21.0285 33.7433 18.0334 36.7332 15.8251C39.723 13.6167 43.7781 12.3761 48.0064 12.3761M21.4351 8.45093C21.4351 10.533 20.3153 12.5297 18.3221 14.002C16.3288 15.4742 13.6254 16.3013 10.8066 16.3013V32.0019C13.6254 32.0019 16.3288 32.829 18.3221 34.3013C20.3153 35.7735 21.4351 37.7702 21.4351 39.8523H74.5778C74.5778 37.7702 75.6976 35.7735 77.6908 34.3013C79.684 32.829 82.3874 32.0019 85.2063 32.0019V16.3013C82.3874 16.3013 79.684 15.4742 77.6908 14.002C75.6976 12.5297 74.5778 10.533 74.5778 8.45093H21.4351Z" fill="#00B37E"/>
</svg>
